PathFileType	4	(X/Y/Z)	C:/Users/opensim2020/Desktop/walking_exp_matlab/subject02_walking05_straight_02.trc																																																																																																																												
DataRate	CameraRate	NumFrames	NumMarkers	Units	OrigDataRate	OrigDataStartFrame	OrigNumFrames																																																																																																																								
100	100	8	42	mm	100	1487	243																																																																																																																								
Frame#	Time	LFHD			RFHD			LBHD			RBHD			C7			T10			CLAV			STRN			RBAK			LSHO			LUPA			LELB			LFRM			LWRA			LWRB			LFIN			RSHO			RUPA			RELB			RFRM			RWRA			RWRB			RFIN			LASI			RASI			LPSI			RPSI			LTHI			LKNE			LTIB			LANK			LHEE			LTOE			RTHI			RKNE			RTIB			RANK			RHEE			RTOE			*39			*40			*41		
		X1	Y1	Z1	X2	Y2	Z2	X3	Y3	Z3	X4	Y4	Z4	X5	Y5	Z5	X6	Y6	Z6	X7	Y7	Z7	X8	Y8	Z8	X9	Y9	Z9	X10	Y10	Z10	X11	Y11	Z11	X12	Y12	Z12	X13	Y13	Z13	X14	Y14	Z14	X15	Y15	Z15	X16	Y16	Z16	X17	Y17	Z17	X18	Y18	Z18	X19	Y19	Z19	X20	Y20	Z20	X21	Y21	Z21	X22	Y22	Z22	X23	Y23	Z23	X24	Y24	Z24	X25	Y25	Z25	X26	Y26	Z26	X27	Y27	Z27	X28	Y28	Z28	X29	Y29	Z29	X30	Y30	Z30	X31	Y31	Z31	X32	Y32	Z32	X33	Y33	Z33	X34	Y34	Z34	X35	Y35	Z35	X36	Y36	Z36	X37	Y37	Z37	X38	Y38	Z38	X39	Y39	Z39	X40	Y40	Z40	X41	Y41	Z41	X42	Y42	Z42
																																																																																																																															
122	1.21	-37.06143	1753.52368	-1531.33276	-51.80249	1733.52722	-1389.33252	-155.7883	1663.65613	-1553.89246	-182.48511	1641.91602	-1414.3053	-208.70203	1529.46838	-1476.55078	-262.9436	1254.07556	-1472.38464	-71.71156	1460.27954	-1488.09656	-20.7484	1287.21692	-1478.203	-266.189	1357.13306	-1410.79321	-138.51198	1502.74792	-1656.71423	-127.59172	1306.08472	-1748.20959	-102.91856	1167.88391	-1770.11951	-54.25835	1044.89722	-1784.80774	36.60412	943.29236	-1754.83044	-7.73972	931.41876	-1787.83276	32.14683	879.315	-1795.24023	-125.93867	1497.13318	-1291.40356	-150.63365	1307.09497	-1204.0072	-133.65819	1162.2666	-1182.85364	-92.59988	1049.3241	-1161.09619	-29.54907	929.33325	-1177.0415	-76.05163	920.6731	-1145.22461	-31.00978	863.10333	-1141.44019	-31.00611	995.20526	-1605.8634	-33.66981	983.36255	-1350.23743	-240.53142	1036.41187	-1526.39063	-246.29028	1034.90674	-1411.74817	-91.84041	677.62372	-1645.58618	-125.94729	477.23703	-1607.62402	-187.57286	290.95981	-1601.31494	-191.91554	70.3945	-1554.42102	-227.93234	43.15629	-1502.66492	-36.25011	33.30603	-1566.31079	-55.54859	683.18561	-1262.4187	-10.81141	487.01868	-1278.69873	-121.75192	339.19165	-1289.73633	-210.94197	171.3584	-1333.80725	-247.24658	128.45734	-1400.56287	-108.76705	59.39813	-1287.0979	-155.62912	1806.39185	-1454.14954	-2845.24561	1033.771	3360.3374	NaN	NaN	NaN
123	1.22	-27.11115	1753.21619	-1531.15967	-42.1034	1732.78906	-1388.98132	-145.99551	1663.81323	-1554.17212	-172.99217	1641.7395	-1414.7052	-199.33405	1529.52612	-1477.52234	-254.28951	1254.28333	-1472.95972	-62.55357	1460.08655	-1488.63562	-12.08722	1286.875	-1479.31079	-257.34656	1357.14075	-1411.83325	-128.59683	1503.38403	-1657.4751	-115.08892	1307.11304	-1749.07288	-88.73298	1169.15625	-1771.22021	-37.6315	1046.82629	-1784.73242	54.62378	947.07947	-1753.14819	11.13555	934.21454	-1786.80762	52.08244	882.84583	-1793.36609	-117.39439	1496.72864	-1292.19043	-144.29955	1306.96179	-1205.24158	-127.52725	1162.146	-1183.00476	-86.31746	1049.04309	-1160.98376	-23.30307	929.19562	-1176.77246	-69.93494	920.28882	-1145.36108	-24.69548	863.13544	-1141.23901	-24.06202	994.42053	-1607.62268	-24.61554	983.94586	-1352.02368	-232.79724	1036.40747	-1525.91833	-237.69139	1035.64966	-1411.2052	-87.14893	676.80725	-1645.43713	-123.65654	477.03043	-1607.66174	-186.60623	291.1723	-1600.94788	-191.91014	70.51026	-1554.25977	-227.95815	43.34542	-1502.52759	-36.31495	33.25323	-1566.45813	-43.24295	684.36737	-1263.33484	3.80124	488.09827	-1280.52209	-101.11668	335.39554	-1290.62085	-182.7746	163.38303	-1333.11279	-217.84134	118.48425	-1399.53125	-74.91936	57.1646	-1286.69153	-145.70474	1806.2323	-1453.95508	-2845.98828	1033.81335	3357.08936	NaN	NaN	NaN
124	1.23	-17.13041	1753.05981	-1530.94458	-32.28328	1732.57605	-1389.15869	-136.18596	1663.83301	-1554.34399	-163.38115	1641.37683	-1414.95837	-190.028	1529.49084	-1478.44666	-245.60634	1254.40625	-1473.45154	-53.32494	1459.82202	-1489.11804	-3.32191	1286.43567	-1480.31628	-248.77209	1357.28162	-1413.1377	-118.46481	1503.40137	-1657.67761	-102.69107	1308.04858	-1749.96228	-74.62249	1170.20398	-1772.10156	-21.00654	1048.50354	-1784.36353	72.44317	950.74237	-1751.28259	29.934	936.79211	-1785.52271	71.6741	886.32123	-1791.32703	-109.0184	1496.07959	-1292.89282	-137.25471	1306.63354	-1205.79944	-121.31274	1161.71985	-1183.46277	-80.16199	1048.53479	-1161.08838	-16.93563	929.08917	-1176.47693	-64.09439	919.81104	-1145.7467	-18.56634	862.83917	-1140.93054	-17.10066	993.37036	-1609.22717	-15.529	984.19354	-1353.6488	-224.97203	1036.28125	-1525.43848	-229.09778	1036.16614	-1410.67078	-82.84452	676.48737	-1645.69299	-121.20056	476.75824	-1607.70569	-185.63126	291.40503	-1600.7019	-191.7426	70.45464	-1553.97424	-227.95433	43.44686	-1502.38379	-36.35166	33.23298	-1566.6217	-31.28347	685.53046	-1264.10315	17.96793	488.95502	-1282.3114	-80.57868	331.43048	-1291.17468	-154.30222	155.46364	-1332.31384	-187.65559	108.24608	-1398.08411	-40.76519	55.33007	-1286.61804	-135.84846	1806.06921	-1453.85706	-2845.12695	1033.63879	3360.25513	NaN	NaN	NaN
125	1.24	-7.26132	1752.68762	-1530.70935	-22.77999	1731.73254	-1388.85193	-126.39058	1663.71875	-1554.52344	-153.81186	1640.9541	-1415.20691	-180.6781	1529.31067	-1479.15186	-236.9021	1254.40942	-1473.84387	-44.11736	1459.40942	-1489.55103	5.52724	1285.85571	-1481.27234	-240.10834	1357.04272	-1414.25525	-108.72793	1503.75195	-1658.46179	-90.52054	1308.72791	-1750.54138	-60.62519	1171.17102	-1772.88074	-4.91177	1050.42029	-1784.26245	89.90148	954.36621	-1749.35669	47.99262	939.63159	-1784.2113	91.09901	889.66553	-1788.88721	-100.62963	1495.26563	-1293.38794	-130.74648	1306.28638	-1206.9696	-114.94129	1161.28394	-1183.59998	-74.10452	1048.07251	-1161.22302	-10.72356	928.52325	-1176.04553	-57.91165	919.19305	-1145.79785	-12.51011	862.35767	-1140.59558	-9.13312	992.27441	-1611.03247	-6.28215	984.23584	-1354.87573	-217.07918	1036.00281	-1524.94263	-220.42368	1036.38586	-1410.20801	-78.33202	675.91199	-1645.70105	-118.62105	476.47073	-1607.62671	-184.34372	291.61414	-1600.55481	-191.62503	70.55389	-1553.78882	-227.89342	43.59383	-1502.18225	-36.31116	33.14845	-1566.71326	-19.62986	686.3186	-1264.85107	31.7432	489.3797	-1284.06152	-60.05321	327.25784	-1291.43872	-125.89426	147.54883	-1331.40747	-158.10262	98.88998	-1396.54541	-6.28363	53.57365	-1286.65149	-125.98548	1805.66956	-1453.60999	-2845.20361	1033.92163	3360.28198	NaN	NaN	NaN
126	1.25	2.70564	1752.12915	-1530.40747	-13.12041	1730.7821	-1388.37927	-116.57957	1663.46045	-1554.57666	-144.30339	1640.44238	-1415.35339	-171.26418	1528.96985	-1479.79724	-228.04192	1254.27563	-1473.97473	-34.53198	1459.08691	-1489.99377	14.39317	1285.14868	-1482.11108	-231.29514	1356.76038	-1415.15857	-98.67046	1503.62854	-1658.5376	-78.2961	1309.15271	-1750.87524	-46.73808	1171.98828	-1773.57104	11.24671	1051.98401	-1783.64856	107.103	957.8233	-1747.22644	65.83564	942.22614	-1782.64941	109.8614	893.20654	-1786.81812	-92.25239	1494.46753	-1294.0542	-123.58595	1305.47705	-1207.44006	-108.53109	1160.58337	-1184.07043	-68.47809	1047.10034	-1161.60291	-4.42648	927.80725	-1175.71948	-51.85886	918.39972	-1145.93933	-6.43434	861.72162	-1140.33765	-2.05981	990.78589	-1612.22278	2.68321	983.91797	-1356.02576	-209.00322	1035.5564	-1524.41931	-211.70445	1036.25952	-1409.72876	-73.64947	675.33856	-1645.65833	-115.73134	476.16452	-1607.55603	-182.94153	291.90506	-1600.48889	-191.51207	70.67642	-1553.5968	-227.81783	43.78081	-1501.99414	-36.29342	33.06318	-1566.83423	-8.14024	687.02325	-1265.61658	44.85308	489.53012	-1285.86853	-39.47932	322.92154	-1291.52417	-96.62822	139.84464	-1330.14575	-127.12299	89.33591	-1394.81689	28.44438	52.55352	-1286.79883	-116.08221	1805.12207	-1453.375	-2845.85156	1033.93787	3357.25391	NaN	NaN	NaN
127	1.26	12.699	1751.46448	-1529.72668	-3.39013	1729.88867	-1388.08276	-106.74285	1663.00049	-1554.5835	-134.69278	1639.7113	-1415.43738	-161.85986	1528.51794	-1480.38428	-219.17891	1254.01208	-1474.14893	-25.40657	1458.24097	-1490.16919	23.30247	1284.28064	-1482.81177	-222.37431	1356.36353	-1415.98718	-88.7384	1503.4812	-1658.79675	-66.73741	1309.66162	-1751.62598	-33.08398	1172.69556	-1774.15039	26.86705	1053.68066	-1783.32227	123.7385	961.15137	-1744.93091	83.37773	944.85614	-1781.03931	128.39395	896.56671	-1784.35864	-83.60835	1493.42664	-1294.33728	-115.84584	1304.93103	-1207.76233	-102.02198	1159.7876	-1184.13098	-62.01322	1046.38892	-1161.63037	1.82094	926.89276	-1175.33508	-45.94611	917.51947	-1146.13867	-0.31625	860.93542	-1140.04248	5.69159	989.33728	-1613.62598	12.20688	983.57336	-1356.86511	-200.88278	1035.00415	-1523.86951	-202.98349	1035.84253	-1409.3092	-68.87845	674.67126	-1645.58301	-112.63397	475.77988	-1607.45264	-181.03163	292.01907	-1600.21277	-191.35797	70.94142	-1553.49084	-227.737	44.04764	-1501.83081	-36.22578	33.02895	-1566.96814	3.07099	687.3526	-1266.34546	57.49752	489.37402	-1287.63733	-18.85311	318.39838	-1291.4314	-67.09852	132.49411	-1328.67419	-95.53152	80.13828	-1392.44275	62.9191	51.62337	-1286.96362	-106.33707	1804.56934	-1453.07739	-2845.15649	1033.81458	3360.25049	NaN	NaN	NaN
128	1.27	22.559	1750.75232	-1529.32104	6.16888	1729.05176	-1387.92004	-96.94476	1662.43506	-1554.49268	-125.09661	1638.99341	-1415.4231	-152.37109	1527.93396	-1480.71497	-210.55052	1253.69067	-1474.29675	-16.04531	1457.38489	-1490.31238	32.2575	1283.33459	-1483.38977	-213.33664	1355.73291	-1416.59155	-78.98019	1503.34827	-1659.18652	-55.14185	1309.92139	-1752.13062	-19.64527	1173.23572	-1774.5907	42.59857	1055.04871	-1782.56262	140.25668	964.06934	-1742.20984	100.65648	947.18011	-1779.21362	146.77953	899.66003	-1781.60376	-74.92135	1492.20203	-1294.42834	-109.05888	1303.97424	-1208.59119	-95.47361	1158.90149	-1184.44006	-55.95972	1045.16821	-1161.53149	8.15069	925.82758	-1174.93018	-39.66128	916.39417	-1146.04785	5.75416	859.88611	-1139.69604	13.33353	987.87427	-1614.56323	21.38671	982.86212	-1357.53235	-192.72691	1034.31274	-1523.36963	-194.2283	1035.16199	-1408.91602	-63.85276	673.92297	-1645.46033	-109.32944	475.35825	-1607.3092	-179.44444	292.24365	-1600.04578	-191.12704	70.9175	-1553.17932	-227.66701	44.20992	-1501.53027	-36.27422	32.95375	-1567.10828	13.9507	687.34271	-1267.10278	69.53342	488.69696	-1289.76685	1.80448	313.91418	-1291.23132	-37.19837	125.5952	-1326.99353	-64.18813	72.08228	-1390.34924	97.68042	51.43468	-1287.17749	-96.49645	1803.75647	-1452.79578	NaN	NaN	NaN	NaN	NaN	NaN
129	1.28	32.36232	1749.71497	-1528.81274	15.74236	1727.99707	-1387.46643	-87.1433	1661.72217	-1554.3446	-115.60213	1638.01074	-1415.3927	-142.92204	1527.19653	-1481.06726	-201.55843	1253.07251	-1474.26929	-6.71153	1456.37988	-1490.34766	41.24043	1282.21863	-1483.81213	-204.49657	1355.10913	-1417.24878	-69.04428	1503.04187	-1659.30786	-43.72408	1310.00781	-1752.46082	-6.46287	1173.63916	-1774.94312	57.71535	1056.34412	-1781.70007	156.17853	967.39246	-1739.99963	117.46806	949.42401	-1777.26855	164.34236	902.97754	-1779.12744	-66.3497	1490.96912	-1294.78052	-101.6684	1302.78247	-1209.06934	-88.73212	1157.75952	-1184.84412	-49.3784	1044.23035	-1161.65833	14.54345	924.68097	-1174.45325	-33.55883	915.1748	-1145.98645	11.76747	858.64368	-1139.323	21.02745	986.4668	-1615.29626	30.67002	981.95056	-1358.05115	-184.53526	1033.46814	-1522.88	-185.42842	1034.19775	-1408.60425	-58.62608	673.14453	-1645.48206	-105.88936	474.92456	-1607.14368	-177.41829	292.41382	-1599.7179	-191.02521	71.28099	-1553.06897	-227.72273	44.71535	-1501.45142	-36.16597	32.98827	-1567.2738	24.46031	686.9184	-1267.71228	81.16695	487.93347	-1291.36694	22.43849	309.504	-1290.91187	-7.13636	119.21455	-1325.22559	-32.39244	64.46918	-1387.98865	131.9879	51.69333	-1287.37231	-86.75979	1802.84644	-1452.27881	-2846.03711	1033.92761	3356.85327	NaN	NaN	NaN
